<?xml version="1.0" standalone="no"?>
<!DOCTYPE svg PUBLIC "-//W3C//DTD SVG 20010904//EN"
 "http://www.w3.org/TR/2001/REC-SVG-20010904/DTD/svg10.dtd">
<svg version="1.0" xmlns="http://www.w3.org/2000/svg"
 width="940.000000pt" height="940.000000pt" viewBox="0 0 940.000000 940.000000"
 preserveAspectRatio="xMidYMid meet">

<g transform="translate(0.000000,940.000000) scale(0.100000,-0.100000)"
fill="#000000" stroke="none">
<path d="M0 4700 l0 -4700 4700 0 4700 0 0 4700 0 4700 -4700 0 -4700 0 0
-4700z m5055 4354 c113 -26 171 -33 345 -44 91 -6 190 -17 221 -25 30 -8 79
-15 107 -15 30 0 70 -8 95 -19 23 -11 85 -27 137 -36 52 -10 118 -28 145 -41
28 -12 77 -26 110 -30 33 -3 74 -14 90 -24 44 -27 136 -60 166 -60 43 0 149
-41 194 -76 24 -18 63 -43 87 -55 24 -12 72 -41 108 -64 36 -24 88 -52 117
-63 28 -11 80 -41 116 -67 36 -27 92 -63 125 -81 69 -36 164 -106 237 -174 28
-25 64 -55 82 -65 17 -10 34 -29 38 -42 3 -13 23 -34 44 -48 71 -44 195 -142
240 -189 25 -25 58 -48 75 -52 44 -10 237 -201 269 -267 14 -29 56 -117 94
-197 37 -79 91 -178 120 -220 59 -87 202 -363 231 -448 35 -99 68 -186 84
-217 14 -30 68 -195 128 -392 19 -63 41 -114 58 -134 24 -30 27 -41 28 -113 1
-95 10 -186 29 -276 8 -36 17 -110 20 -165 4 -55 11 -114 16 -131 5 -17 41
-69 80 -115 39 -46 75 -95 80 -108 6 -14 7 -54 3 -92 -5 -54 -3 -72 10 -90 9
-13 16 -29 16 -35 0 -7 -28 -41 -63 -76 l-64 -63 -31 -130 c-17 -71 -33 -167
-37 -213 -3 -45 -19 -140 -36 -210 -16 -70 -32 -137 -34 -149 -4 -17 2 -27 22
-39 41 -26 123 -106 123 -121 0 -8 -11 -18 -24 -24 -19 -9 -32 -6 -74 15 -56
28 -91 33 -96 14 -77 -282 -112 -369 -317 -793 -31 -66 -71 -149 -88 -185 -53
-113 -125 -246 -152 -281 -15 -19 -100 -108 -191 -199 -90 -91 -186 -190 -213
-220 -28 -30 -86 -89 -131 -130 -44 -42 -93 -94 -108 -117 -25 -37 -26 -45
-17 -79 18 -66 -19 -98 -74 -64 -18 11 -39 20 -47 20 -8 0 -46 -22 -84 -49
-39 -27 -81 -52 -95 -56 -14 -3 -48 -24 -75 -45 -27 -21 -96 -70 -154 -109
-233 -156 -240 -162 -240 -191 0 -44 -21 -53 -115 -51 -79 2 -92 -1 -168 -35
-45 -20 -95 -47 -112 -59 -29 -22 -243 -105 -269 -105 -23 0 -221 -137 -243
-168 -14 -19 -35 -33 -55 -37 -62 -12 -70 -17 -84 -52 -13 -30 -13 -41 2 -93
15 -55 15 -61 0 -85 -21 -33 -65 -33 -95 -1 -12 12 -36 52 -54 87 -55 110
-125 135 -213 75 -31 -21 -51 -26 -96 -26 -70 0 -89 -20 -63 -69 8 -17 15 -55
15 -86 0 -46 -4 -60 -25 -80 -29 -30 -44 -31 -94 -6 -47 24 -56 35 -72 89 -6
23 -15 42 -19 42 -3 0 -34 -9 -67 -21 -89 -29 -123 -24 -147 25 -22 44 -50 58
-151 75 -75 13 -139 32 -184 56 -46 24 -125 28 -243 14 -101 -12 -116 -16
-155 -46 -24 -18 -47 -33 -52 -33 -12 0 -41 46 -41 64 0 12 -7 14 -30 9 -40
-8 -103 34 -130 86 -11 22 -24 42 -28 45 -5 3 -42 11 -83 17 -41 7 -81 18 -90
25 -8 8 -25 14 -37 14 -22 0 -21 -1 9 -55 39 -70 36 -87 -21 -101 l-45 -11 -3
-55 c-2 -47 -7 -59 -27 -72 -52 -34 -27 -67 82 -111 67 -27 99 -68 89 -111
-10 -37 -100 -129 -161 -164 -65 -37 -107 -39 -140 -5 -22 21 -25 33 -25 97 0
40 7 95 15 122 8 26 13 52 10 56 -3 4 -30 10 -60 12 -75 6 -92 24 -77 76 23
76 9 102 -55 102 -16 0 -37 6 -48 13 -17 13 -16 15 13 25 18 6 32 18 32 27 0
30 -28 82 -64 118 -21 21 -36 46 -36 60 0 35 -48 124 -78 146 -15 10 -63 26
-107 35 -142 28 -143 29 -340 159 -59 39 -175 139 -275 237 -30 29 -83 75
-116 102 -34 26 -91 81 -127 121 -36 40 -84 86 -106 102 -39 27 -44 27 -84 15
-23 -7 -68 -25 -99 -41 -56 -28 -57 -28 -60 -7 -2 11 -15 30 -30 41 -26 20
-30 20 -205 4 -98 -9 -192 -21 -210 -27 l-32 -11 14 -39 c15 -43 9 -50 -46
-50 -16 0 -46 -8 -67 -17 -20 -9 -57 -17 -82 -18 -25 -1 -56 -5 -70 -10 -22
-7 -21 -3 14 33 21 22 49 43 63 46 20 6 22 10 13 26 -15 28 -31 25 -65 -10
-32 -34 -69 -39 -84 -12 -10 19 -6 27 43 96 17 24 17 30 5 53 -8 14 -38 44
-67 65 -29 21 -69 62 -90 90 -39 54 -107 124 -192 197 l-51 45 -65 -34 c-35
-18 -72 -44 -82 -58 -23 -31 -94 -38 -100 -10 -4 22 43 70 65 66 9 -2 41 23
76 59 l60 62 -35 59 c-19 32 -38 75 -42 95 -8 42 -13 44 -55 20 -24 -14 -35
-15 -48 -7 -31 19 -26 43 14 80 37 34 38 37 38 105 0 69 0 70 46 117 26 27 56
66 67 88 11 21 46 64 77 94 31 30 65 70 76 88 16 24 28 32 50 32 33 0 65 28
84 74 8 18 21 38 29 46 9 7 16 27 16 44 0 51 -27 137 -49 158 -29 26 -26 50 9
81 51 46 63 81 57 167 -3 41 -19 136 -35 210 -17 74 -33 166 -36 204 -3 37
-10 82 -15 100 -5 17 -15 50 -22 73 -16 55 -24 62 -143 119 l-99 47 -33 -39
c-19 -21 -50 -67 -70 -101 -36 -62 -77 -93 -123 -93 -26 0 -71 42 -71 66 0 21
31 64 107 147 82 90 91 120 68 230 -29 141 -10 402 37 491 6 10 29 44 53 75
63 83 114 228 120 341 2 36 15 81 38 130 19 41 44 105 56 142 12 37 33 83 47
103 31 46 62 107 79 155 7 21 26 57 41 81 16 24 39 67 52 94 13 28 37 71 53
96 16 25 37 77 47 116 10 38 26 82 36 98 24 37 22 103 -5 190 -27 86 -31 198
-7 235 9 14 21 41 27 61 27 86 137 150 311 183 118 23 115 21 283 221 105 125
626 648 687 689 19 13 54 36 77 50 45 28 56 46 93 162 38 119 41 124 65 124
29 0 37 10 23 27 -8 10 -8 23 2 53 7 22 17 40 22 40 4 0 8 7 8 16 0 10 6 14
15 10 10 -4 15 1 15 15 0 19 -4 20 -35 15 -30 -6 -35 -4 -35 12 0 25 19 42 49
42 28 0 61 -26 61 -48 0 -11 7 -13 28 -7 72 18 178 17 259 -4 45 -12 92 -21
105 -21 13 0 71 18 128 41 57 22 180 58 274 80 93 22 197 51 232 65 34 13 97
31 141 40 105 20 106 20 155 60 35 30 47 35 72 29 17 -3 38 -5 46 -5 8 0 96 2
195 5 99 2 191 8 205 14 42 17 345 13 425 -5z"/>
<path d="M2814 8699 c12 -8 25 -8 40 -1 18 9 16 11 -19 11 -33 0 -37 -1 -21
-10z"/>
<path d="M4630 8545 c-96 -15 -134 -35 -173 -93 -41 -60 -174 -200 -198 -207
-11 -4 -37 5 -63 20 l-45 26 -16 -24 c-9 -14 -31 -62 -50 -107 -19 -46 -42
-92 -52 -104 -59 -71 -100 -106 -130 -112 -43 -8 -79 -59 -145 -203 -35 -78
-48 -118 -48 -152 0 -52 -9 -63 -66 -83 -38 -13 -39 -14 -37 -61 1 -29 12 -67
27 -97 14 -27 26 -58 26 -68 0 -24 99 -100 130 -100 17 0 31 48 55 193 25 144
48 197 86 197 26 0 25 -24 -6 -140 -64 -239 -63 -237 -116 -259 -26 -12 -67
-21 -91 -21 -36 0 -53 8 -101 46 -33 25 -66 59 -75 76 -48 87 -75 118 -137
163 -87 62 -148 71 -226 34 -45 -21 -54 -22 -95 -11 -75 20 -145 15 -234 -18
-76 -28 -91 -30 -220 -30 -81 0 -170 6 -217 15 -43 8 -106 15 -141 15 -103 0
-119 -34 -87 -185 17 -81 20 -348 5 -465 -13 -102 -56 -187 -134 -264 -54 -54
-79 -69 -204 -125 -125 -56 -149 -71 -191 -117 -27 -30 -69 -92 -94 -138 -25
-47 -79 -136 -120 -198 -77 -116 -140 -255 -190 -418 -42 -139 -52 -467 -28
-915 7 -147 19 -261 31 -315 10 -47 24 -123 31 -170 6 -47 16 -93 21 -103 5
-10 27 -79 49 -155 55 -188 108 -338 139 -392 14 -25 34 -65 44 -90 64 -162
322 -571 471 -746 28 -33 70 -84 93 -116 24 -31 78 -84 120 -119 42 -34 97
-81 122 -104 25 -23 71 -57 103 -75 69 -38 143 -96 287 -225 120 -108 211
-174 290 -212 30 -14 64 -34 75 -44 33 -30 382 -187 499 -225 75 -24 131 -36
178 -37 38 -1 72 -7 80 -15 6 -6 29 -12 50 -12 32 0 40 5 53 30 l16 31 33 -21
c40 -24 126 -27 160 -5 20 13 32 13 116 -5 116 -25 133 -25 154 -1 14 16 29
18 104 16 48 -2 118 -10 155 -19 90 -21 100 -20 135 9 17 14 37 25 45 25 21 0
47 -38 47 -67 0 -28 16 -30 25 -3 10 33 40 43 74 25 42 -21 51 -19 62 15 14
39 40 39 72 -2 48 -63 67 -78 97 -78 17 0 30 4 30 10 0 5 11 12 25 16 22 6 25
11 25 55 0 38 4 51 22 63 28 20 58 20 86 0 17 -12 22 -25 22 -59 0 -48 15 -95
33 -107 29 -18 137 -8 219 22 140 50 279 80 367 80 72 0 87 4 148 35 37 19 84
40 104 45 87 24 517 295 692 436 44 36 95 73 111 81 48 25 204 159 271 233
100 111 199 232 235 285 19 28 56 79 82 114 27 35 60 86 75 115 14 28 39 70
54 93 63 91 275 538 313 658 21 66 51 148 67 182 50 108 136 458 168 683 32
232 35 381 12 660 -21 259 -54 448 -110 624 -49 152 -80 269 -86 317 -7 56
-20 69 -111 113 -138 67 -198 144 -196 252 1 61 6 88 36 198 19 72 16 79 -89
241 -40 61 -82 128 -95 150 -36 61 -155 210 -247 309 -46 49 -83 92 -83 97 0
17 -208 192 -275 232 -38 22 -81 50 -95 62 -120 105 -374 231 -493 246 -40 5
-101 12 -137 17 -35 4 -91 4 -125 -1 -103 -15 -152 -4 -287 61 -138 67 -163
84 -376 267 -138 118 -152 132 -152 162 0 37 -21 53 -70 53 -50 0 -90 -23
-171 -97 -93 -86 -149 -111 -204 -93 -51 17 -105 68 -160 150 -61 93 -93 102
-265 75z m134 -2010 c4 -10 -46 -49 -172 -135 -142 -97 -170 -120 -142 -116
56 10 592 66 622 66 21 0 28 -5 28 -20 0 -11 -1 -20 -3 -20 -34 0 -380 -86
-403 -100 -51 -32 -58 -62 -51 -218 l7 -137 -35 60 c-51 91 -55 95 -49 60 13
-87 94 -862 92 -880 -2 -12 -110 172 -283 484 -154 277 -285 505 -291 508 -6
2 -89 -30 -183 -71 -95 -42 -176 -76 -181 -76 -14 0 -21 33 -8 42 7 4 96 54
198 111 151 83 180 103 158 105 -20 2 -28 9 -28 22 0 15 10 20 58 25 31 3 68
8 80 11 33 7 19 -12 -26 -36 l-37 -19 157 -1 c86 0 164 -3 174 -7 15 -5 13 1
-8 38 -13 24 -29 43 -34 42 -6 -1 -50 -4 -99 -8 -75 -5 -87 -4 -70 7 76 48
493 277 506 277 9 1 19 -6 23 -14z m-1484 -403 c0 -16 -20 -23 -132 -46 -73
-15 -167 -35 -210 -43 l-76 -16 4 -31 c3 -17 61 -544 129 -1171 143 -1306 138
-1263 172 -1415 70 -318 190 -466 431 -532 64 -18 105 -21 242 -21 146 0 176
3 265 26 313 84 533 278 624 552 69 208 67 388 -13 1110 -31 275 -56 504 -56
508 0 19 21 -8 51 -64 18 -32 34 -58 35 -56 2 2 -18 206 -45 452 -28 247 -48
452 -45 454 2 2 6 2 8 0 2 -2 295 -528 652 -1169 356 -641 653 -1171 660
-1179 10 -11 90 30 481 247 257 144 488 276 513 294 73 54 90 88 90 177 0 42
-25 268 -55 501 -30 233 -55 433 -55 442 0 17 47 45 57 34 4 -4 372 -883 403
-963 8 -20 -55 -57 -988 -576 -548 -306 -1018 -567 -1044 -582 -46 -26 -47
-26 -57 -6 -10 18 4 30 151 131 90 61 163 114 163 118 0 17 -860 1551 -863
1539 -2 -8 16 -182 40 -388 39 -340 42 -396 43 -619 0 -267 -10 -333 -71 -488
-154 -388 -627 -631 -1130 -582 -279 28 -499 116 -645 260 -111 110 -172 224
-224 422 -40 154 -50 230 -175 1373 -66 605 -122 1114 -125 1132 l-6 32 -200
-6 -201 -6 4 24 3 24 550 61 c629 71 645 72 645 46z"/>
<path d="M4507 6122 c15 -28 30 -47 31 -41 5 13 -32 82 -47 87 -7 2 0 -19 16
-46z"/>
</g>
</svg>
